# xmcd
# 
# Track frame offsets:
#     150
#     11061
#     29291
#     30223
#     53620
#     77813
#     98761
#     109293
#     141483
#     162272
#     174824
#     176168
#     195049
#     207395
#     221723
#     234317
#     235841
#     251767
#     264592
#     267581
# 
# Disc length: 3953
# 
# Revision: 0
# Processed by: cddbd v1.5.2PL0 Copyright (c) Steve Scherf et al.
# Submitted via: fre:ac v1.0.27
# 
DISCID=0f0f6f14
DTITLE=Joe Jencks - Rise As One
DYEAR=2005
DGENRE=Folk
TTITLE0=Step By Step
TTITLE1=John Henry
TTITLE2=Phil (Spoken Word)
TTITLE3=Song Of The Rails
TTITLE4=Deportees
TTITLE5=The Great Fast Food Strike
TTITLE6=Which Side Are You On
TTITLE7=Christmas In Mansfield
TTITLE8=The Everett Massacre (Spoken Word)
TTITLE9=The House That Jack Built
TTITLE10=Real People (Spoken Word)
TTITLE11=Room Here For Another
TTITLE12=We Won
TTITLE13=War On The Workers
TTITLE14=We Do The Work
TTITLE15=Bremerton (Spoken Word)
TTITLE16=Rosie The Riveter Revisited
TTITLE17=Sixteen Tons
TTITLE18=Working Class Philanthropy (Spoken Word)
TTITLE19=Rise As One
EXTD=Turtle Bear Music\nTBM/TBR 110105-1
EXTT0=
EXTT1=
EXTT2=
EXTT3=
EXTT4=
EXTT5=
EXTT6=
EXTT7=
EXTT8=
EXTT9=
EXTT10=
EXTT11=
EXTT12=
EXTT13=
EXTT14=
EXTT15=
EXTT16=
EXTT17=
EXTT18=
EXTT19=
PLAYORDER=
